<svg xmlns="http://www.w3.org/2000/svg" xml:space="preserve" width="230.842" height="247.477" viewBox="0 0 216.414 232.01"><path fill="#eecf3d" d="M211.807 139.088c-3.18 16.366-28.492 34.277-57.562 37.748-15.159 1.809-30.084 3.471-45.999 2.741-26.027-1.192-46.565-6.212-46.565-6.212 0 2.534.156 4.946.469 7.202 3.384 25.687 25.47 27.225 46.391 27.943 21.116.723 39.919-5.206 39.919-5.206l.867 19.09s-14.77 7.931-41.08 9.39c-14.51.797-32.525-.365-53.507-5.919C9.232 213.82 1.406 165.311.209 116.091c-.365-14.613-.14-28.393-.14-39.918 0-50.33 32.976-65.083 32.976-65.083C49.672 3.454 78.204.242 107.865 0h.729c29.66.242 58.21 3.454 74.837 11.09 0 0 32.975 14.752 32.975 65.082 0 0 .414 37.134-4.599 62.916"/><path fill="#854d49" stroke="#e6d174" stroke-width="1.61850384" d="M69.775 135.16c-6.044-6.244-6.877-14.278-1.487-14.344 2.81-.033 2.856-.593.186-2.29-2.402-1.528-3.515-13.388-3.48-37.099.05-34.185.204-34.973 7.992-41.153 7.088-5.624 10.176-6.071 28.757-4.165 11.45 1.174 25.292 1.938 30.76 1.698 18.333-.804 20.383 1.149 20.132 19.172l-.227 16.302h-13.862c-15.509 0-20.62-5.525-10.792-11.663 4.835-3.02 5.253-4.318 2.034-6.308-2.343-1.447-5.66-1.174-7.855.649-2.09 1.734-7.112 2.52-11.161 1.746-4.049-.774-6.793-.487-6.098.638.695 1.125-5.702 5.13-14.215 8.9-8.514 3.769-13.823 7.445-11.799 8.169 2.025.724 7.813-.745 12.862-3.264l9.18-4.58-.966 23.458-.966 23.458 8.375 1.668c5.447 1.084 7.616 2.896 6.203 5.182-1.54 2.491-.516 2.836 3.52 1.184 3.13-1.281 8.034-3.003 10.896-3.826 5.532-1.59 7.237-6.75 2.23-6.75-4.331 0-3.65-14.849.744-16.196 2.045-.627 8.736-1.84 14.87-2.694l11.151-1.553v18.481c0 28.353-3.59 31.707-33.595 31.386-13.405-.144-26.638-1.474-29.407-2.956-3.133-1.676-5.73-1.568-6.878.288-2.382 3.854-7.44 3.86-7.44.008 0-1.635 1.865-2.974 4.143-2.974 3.446 0 7.753-5.9 7.753-10.618 0-.665-3.196-.946-7.103-.623-4.247.352-6.538 2.06-5.699 4.247.773 2.013.289 5.49-1.075 7.729-2.025 3.324-3.432 3.085-7.683-1.306zm46.838-2.403c1.01-1.635.42-2.974-1.312-2.974s-3.15 1.339-3.15 2.974c0 1.636.591 2.974 1.312 2.974.721 0 2.139-1.338 3.15-2.974zm-10.409-1.487c0-.818-.669-1.487-1.487-1.487-.817 0-1.487.67-1.487 1.487 0 .818.67 1.487 1.487 1.487.818 0 1.487-.669 1.487-1.487zm-5.501-8.921c0-1.554-1.439-3.305-3.197-3.89-1.758-.588-3.197 1.164-3.197 3.89s1.439 4.477 3.197 3.89c1.758-.585 3.197-2.336 3.197-3.89zm53.082 0c0-.818-.669-1.487-1.487-1.487-.817 0-1.487.669-1.487 1.487 0 .818.67 1.487 1.487 1.487.818 0 1.487-.67 1.487-1.487zM88.361 116.4c0-.818-.669-1.487-1.487-1.487-.817 0-1.486.669-1.486 1.487 0 .818.669 1.487 1.486 1.487.818 0 1.487-.669 1.487-1.487zm63.631-1.982c-.842-1.363-2.79-2.479-4.33-2.479-1.539 0-2.798 1.115-2.798 2.479 0 1.363 1.948 2.478 4.33 2.478 2.381 0 3.64-1.115 2.798-2.478zm-71.065-5.452c1.01-1.636.42-2.974-1.312-2.974s-3.149 1.338-3.149 2.974c0 1.635.59 2.973 1.311 2.973.722 0 2.139-1.338 3.15-2.973zm10.408 0a2.983 2.983 0 0 0-2.974-2.974 2.983 2.983 0 0 0-2.973 2.974 2.983 2.983 0 0 0 2.973 2.973 2.983 2.983 0 0 0 2.974-2.973zm-17.843-1.487c0-.819-.669-1.487-1.487-1.487-.817 0-1.487.669-1.487 1.487 0 .818.67 1.487 1.487 1.487.818 0 1.487-.67 1.487-1.487zm68.398.318c0-.643-2.077-1.966-4.615-2.94-2.647-1.016-3.84-.517-2.798 1.169 1.746 2.826 7.413 4.18 7.413 1.77zm2.974-6.266c0-.818-.67-1.487-1.487-1.487-.818 0-1.487.669-1.487 1.487 0 .818.67 1.487 1.487 1.487.818 0 1.487-.669 1.487-1.487zm-68.398-2.974c0-.818-.669-1.487-1.487-1.487-.818 0-1.487.669-1.487 1.487 0 .818.67 1.487 1.487 1.487.818 0 1.487-.669 1.487-1.487zm8.922 0c0-.818-.67-1.487-1.487-1.487-.818 0-1.487.669-1.487 1.487 0 .818.669 1.487 1.487 1.487.817 0 1.487-.669 1.487-1.487zm53.528 0c0-.818-.669-1.487-1.487-1.487-.818 0-1.487.669-1.487 1.487 0 .818.67 1.487 1.487 1.487.818 0 1.487-.669 1.487-1.487zm-50.555-5.947c0-.819-.669-1.487-1.487-1.487-.817 0-1.486.668-1.486 1.487 0 .818.669 1.486 1.486 1.486.818 0 1.487-.668 1.487-1.486zm-14.869-2.974c0-.819-.669-1.487-1.487-1.487-.817 0-1.487.669-1.487 1.487 0 .818.67 1.487 1.487 1.487.818 0 1.487-.669 1.487-1.487zm23.79.175c0-.722-1.337-2.138-2.973-3.15-1.636-1.01-2.974-.42-2.974 1.312s1.338 3.15 2.974 3.15c1.636 0 2.974-.59 2.974-1.312zm-11.894-6.123c0-.818-.67-1.487-1.487-1.487-.818 0-1.487.669-1.487 1.487 0 .818.669 1.487 1.487 1.487.817 0 1.487-.669 1.487-1.487zM72.5 77.246c-1.09-1.09-1.983-.198-1.983 1.982 0 2.181.893 3.073 1.983 1.983a2.812 2.812 0 0 0 0-3.965zm6.939 3.469c0-.818-.67-1.487-1.487-1.487-.818 0-1.487.669-1.487 1.487 0 .818.67 1.487 1.487 1.487.818 0 1.487-.669 1.487-1.487zm13.878-3.47c-1.09-1.09-1.983-.197-1.983 1.983 0 2.181.892 3.073 1.983 1.983a2.812 2.812 0 0 0 0-3.965zm53.528-8.92a2.812 2.812 0 0 0-3.965 0c-1.09 1.09-.198 1.982 1.983 1.982 2.18 0 3.073-.893 1.982-1.983zm-10.904-5.453c0-.818-.669-1.487-1.487-1.487-.817 0-1.486.669-1.486 1.487 0 .818.669 1.487 1.486 1.487.818 0 1.487-.669 1.487-1.487zm-59.476-2.974c0-.818-.669-1.487-1.487-1.487-.818 0-1.487.67-1.487 1.487 0 .819.67 1.487 1.487 1.487.818 0 1.487-.668 1.487-1.487zm22.304-4.46c1.01-1.636 1.169-2.974.35-2.974-.817 0-2.313 1.338-3.324 2.974-1.011 1.635-1.169 2.973-.351 2.973.818 0 2.314-1.338 3.325-2.973zm49.068-2.803c0-3.9-10.84-5.674-15.284-2.5-3.149 2.25-2.947 2.54.912 1.31 2.829-.901 5.693.336 6.67 2.882 1.688 4.398 7.702 3.077 7.702-1.692zm-54.52-5.128c-1.09-1.09-1.983-.197-1.983 1.983s.892 3.073 1.983 1.983a2.812 2.812 0 0 0 0-3.966zm30.048 1.425c-1.836-5.506-7.32-6.13-9.268-1.055-1.233 3.214.066 4.586 4.343 4.586 3.388 0 5.578-1.57 4.925-3.531zm-17.162-3.903c0-.818-.669-1.487-1.487-1.487-.817 0-1.487.67-1.487 1.487 0 .819.67 1.487 1.487 1.487.818 0 1.487-.668 1.487-1.487zm23.79 0c0-.818-.668-1.487-1.486-1.487s-1.487.67-1.487 1.487c0 .819.669 1.487 1.487 1.487.818 0 1.487-.668 1.487-1.487z"/></svg>