<svg xmlns="http://www.w3.org/2000/svg" xml:space="preserve" width="230.842" height="247.477" viewBox="0 0 216.414 232.01"><g fill="none" stroke="#000" stroke-opacity=".1" stroke-width="4.81"><path d="M211.807 139.088c-3.18 16.366-28.492 34.277-57.562 37.748-15.159 1.809-30.084 3.471-45.999 2.741-26.027-1.192-46.565-6.212-46.565-6.212 0 2.534.156 4.946.469 7.202 3.384 25.687 25.47 27.225 46.391 27.943 21.116.723 39.919-5.206 39.919-5.206l.867 19.09s-14.77 7.931-41.08 9.39c-14.51.797-32.525-.365-53.507-5.919C9.232 213.82 1.406 165.311.209 116.091c-.365-14.613-.14-28.393-.14-39.918 0-50.33 32.976-65.083 32.976-65.083C49.672 3.454 78.204.242 107.865 0h.729c29.66.242 58.21 3.454 74.837 11.09 0 0 32.975 14.752 32.975 65.082 0 0 .414 37.134-4.599 62.916" transform="matrix(.95757 0 0 .95763 4.592 5.625)"/><path stroke-width=".428" d="M28.429 328.904c-.538-.556-.612-1.27-.132-1.276.25-.003.254-.053.016-.204-.214-.136-.313-1.191-.31-3.3.005-3.042.019-3.112.712-3.662.63-.5.905-.54 2.558-.37 1.019.104 2.25.172 2.737.15 1.631-.071 1.813.103 1.791 1.706l-.02 1.45h-1.233c-1.38 0-1.835-.491-.96-1.037.43-.269.467-.384.18-.561a.618.618 0 0 0-.698.057c-.186.155-.633.225-.994.156-.36-.07-.604-.044-.542.057.062.1-.507.456-1.265.791-.757.336-1.23.663-1.05.727.18.065.696-.066 1.145-.29l.817-.408-.086 2.087-.086 2.087.745.149c.484.096.677.258.552.46-.137.223-.046.253.313.106.278-.114.715-.267.97-.34.491-.142.643-.6.198-.6-.386 0-.325-1.322.066-1.442.182-.055.777-.163 1.323-.24l.992-.138v1.645c0 2.522-.32 2.82-2.989 2.792-1.193-.013-2.37-.13-2.616-.263-.28-.149-.51-.14-.612.026-.212.343-.662.343-.662 0 0-.145.166-.264.368-.264.307 0 .69-.525.69-.945 0-.059-.284-.084-.632-.055-.378.031-.582.183-.507.378.069.179.026.488-.095.687-.18.296-.306.275-.684-.116zm4.167-.214c.09-.145.038-.264-.117-.264-.154 0-.28.119-.28.264 0 .146.053.265.117.265s.19-.12.28-.265zm-.926-.132a.133.133 0 0 0-.132-.132.133.133 0 0 0-.132.132c0 .073.059.132.132.132.073 0 .132-.06.132-.132zm-.49-.794c0-.138-.127-.294-.284-.346-.156-.052-.284.104-.284.346 0 .243.128.399.284.346.157-.052.285-.208.285-.346zm4.723 0a.133.133 0 0 0-.132-.132.133.133 0 0 0-.132.132c0 .073.06.132.132.132.073 0 .132-.059.132-.132zm-5.82-.529a.133.133 0 0 0-.133-.132.133.133 0 0 0-.132.132c0 .073.06.132.132.132.073 0 .133-.06.133-.132zm5.66-.176a.508.508 0 0 0-.384-.22c-.137 0-.25.098-.25.22 0 .12.174.22.386.22.212 0 .324-.1.249-.22zm-6.322-.485c.09-.146.038-.265-.117-.265-.154 0-.28.12-.28.265 0 .145.053.264.117.264s.19-.119.28-.264zm.926 0a.265.265 0 0 0-.264-.265.265.265 0 0 0-.265.265.265.265 0 0 0 .53 0zm-1.587-.133a.133.133 0 0 0-.133-.132.133.133 0 0 0-.132.132c0 .073.06.133.132.133.073 0 .133-.06.133-.133zm6.085.029c0-.058-.185-.175-.41-.262-.236-.09-.342-.046-.25.104.156.251.66.372.66.158zm.265-.558a.133.133 0 0 0-.133-.132.133.133 0 0 0-.132.132c0 .073.06.132.132.132.073 0 .133-.06.133-.132zm-6.086-.264a.133.133 0 0 0-.132-.133.133.133 0 0 0-.132.133c0 .072.06.132.132.132.073 0 .132-.06.132-.132zm.794 0a.133.133 0 0 0-.132-.133.133.133 0 0 0-.133.133.133.133 0 0 0 .265 0zm4.763 0a.133.133 0 0 0-.133-.133.133.133 0 0 0-.132.133c0 .072.06.132.132.132.073 0 .133-.06.133-.132zm-4.498-.53a.133.133 0 0 0-.133-.132.133.133 0 0 0-.132.132c0 .073.06.133.132.133.073 0 .133-.06.133-.133zm-1.323-.264a.133.133 0 0 0-.133-.133.133.133 0 0 0-.132.133c0 .073.06.132.132.132.073 0 .133-.06.133-.132zm2.116.015c0-.064-.119-.19-.264-.28-.146-.09-.265-.037-.265.117s.12.28.265.28c.145 0 .264-.052.264-.117zm-1.058-.544a.133.133 0 0 0-.132-.133.133.133 0 0 0-.133.133.133.133 0 0 0 .265 0zm-1.147-.574c-.097-.097-.176-.017-.176.177s.08.273.176.176a.25.25 0 0 0 0-.353zm.618.309a.133.133 0 0 0-.132-.132.133.133 0 0 0-.133.132.133.133 0 0 0 .265 0zm1.235-.309c-.097-.097-.177-.017-.177.177s.08.273.177.176a.25.25 0 0 0 0-.353zm4.762-.793a.25.25 0 0 0-.353 0c-.097.097-.017.176.177.176s.273-.08.176-.176zm-.97-.485a.133.133 0 0 0-.132-.133.133.133 0 0 0-.133.133.133.133 0 0 0 .265 0zm-5.292-.265a.133.133 0 0 0-.132-.132.133.133 0 0 0-.132.132c0 .073.06.132.132.132.073 0 .132-.06.132-.132zm1.985-.397c.09-.145.104-.265.03-.265-.072 0-.205.12-.295.265-.09.146-.104.265-.031.265s.206-.12.296-.265zm4.365-.25c0-.346-.964-.504-1.36-.222-.28.2-.262.226.082.117.251-.08.506.03.593.256.15.392.685.274.685-.15zm-4.85-.456c-.097-.097-.177-.017-.177.177s.08.273.177.176a.25.25 0 0 0 0-.353zm2.673.127c-.163-.49-.651-.545-.825-.094-.11.286.006.408.387.408.301 0 .496-.14.438-.314zm-1.527-.347a.133.133 0 0 0-.132-.132.133.133 0 0 0-.132.132c0 .073.059.132.132.132.073 0 .132-.06.132-.132zm2.117 0a.133.133 0 0 0-.133-.132.133.133 0 0 0-.132.132c0 .073.06.132.132.132.073 0 .133-.06.133-.132z" transform="matrix(10.76269 0 0 10.76335 -233.625 -3406.935)"/></g></svg>